<svg xmlns="http://www.w3.org/2000/svg" xmlns:xlink="http://www.w3.org/1999/xlink" version="1.1" id="Your_Icon" x="0px" y="0px" width="100px" height="100px" viewBox="0 0 100 100" enable-background="new 0 0 100 100" xml:space="preserve">
<path fill="#000000" d="M17.439,37.395c3.561,0,6.447,2.89,6.447,6.45c0,3.559-2.886,6.446-6.447,6.446  c-3.562,0-6.445-2.888-6.445-6.446C10.994,40.285,13.876,37.395,17.439,37.395"/>
<path fill="#000000" d="M88.486,50.21H26.985v-0.003c0.002-6.203,5.033-11.233,11.235-11.235h0.005h39.021h0.005h0.002  C83.459,38.974,88.486,44.004,88.486,50.21"/>
<polygon fill="#000000" points="100,38.057 100,72.717 91.748,72.717 91.748,63.914 8.254,63.914 8.254,72.717 0,72.717 0,27.283   8.254,27.283 8.254,52.768 91.748,52.768 91.748,38.057 "/>
</svg>