<svg xmlns="http://www.w3.org/2000/svg" xmlns:xlink="http://www.w3.org/1999/xlink" version="1.1" x="0px" y="0px" width="100px" height="100px" viewBox="0 0 100 100" enable-background="new 0 0 100 100" xml:space="preserve">
<g id="Captions">
</g>
<g id="Your_Icon">
	<g>
		<path fill="#000000" d="M10,90h40V10H10V90z M44,82.003H34v-10h10V82.003z M44,64H34V54h10V64z M16.001,26.002h10v-10h8v10h10v8    H34v10h-8v-10h-10V26.002z M16.001,54h10v10h-10V54z M16.001,72.003h10v10h-10V72.003z"/>
		<path fill="#000000" d="M56.001,90h10V70h14v20h10V46.002h-34V90z"/>
		<path fill="#000000" d="M56.001,36.002V40h34v-3.999H56.001z"/>
	</g>
</g>
</svg>